<?xml version="1.0" encoding="UTF-8" standalone="no"?>
<!-- Created with Inkscape (http://www.inkscape.org/) -->

<svg
   width="640"
   height="800"
   viewBox="0 0 169.33333 211.66667"
   version="1.1"
   id="svg5"
   xml:space="preserve"
   inkscape:version="1.2.1 (9c6d41e410, 2022-07-14)"
   sodipodi:docname="steve_suit_project.svg"
   xmlns:inkscape="http://www.inkscape.org/namespaces/inkscape"
   xmlns:sodipodi="http://sodipodi.sourceforge.net/DTD/sodipodi-0.dtd"
   xmlns="http://www.w3.org/2000/svg"
   xmlns:svg="http://www.w3.org/2000/svg"><sodipodi:namedview
     id="namedview7"
     pagecolor="#ffffff"
     bordercolor="#000000"
     borderopacity="0.25"
     inkscape:showpageshadow="2"
     inkscape:pageopacity="0.0"
     inkscape:pagecheckerboard="true"
     inkscape:deskcolor="#d1d1d1"
     inkscape:document-units="px"
     showgrid="false"
     inkscape:zoom="1.0255231"
     inkscape:cx="176.00774"
     inkscape:cy="440.26313"
     inkscape:window-width="1920"
     inkscape:window-height="1001"
     inkscape:window-x="-9"
     inkscape:window-y="-9"
     inkscape:window-maximized="1"
     inkscape:current-layer="svg5" /><defs
     id="defs2" /><g
     inkscape:groupmode="layer"
     id="layer2"
     inkscape:label="svg"><path
       id="path248"
       style="fill:#ff0000;stroke-width:2.64583;stroke-linecap:round"
       d="m 69.871704,86.837593 -3.306775,3.740341 -0.478524,0.136425 -0.47904,0.205156 -0.821139,0.182934 -0.47904,0.113689 c 0,0 -0.57011,0.182284 -0.706934,0.227893 -0.136824,0.04561 -0.980302,0.296622 -0.980302,0.296622 l -0.615983,0.15968 -0.683679,0.159681 -1.778703,0.342098 -1.755965,0.433048 c 0,0 -0.912339,0.342098 -1.003556,0.342098 -0.09122,0 -1.801441,0.547254 -1.801441,0.547254 l -2.189013,0.866613 -2.78226,1.185974 -0.775146,0.387574 -0.31936,0.47904 0.02429,2.331124 -0.161231,0.580326 -0.306441,0.290422 -0.04858,0.273885 -0.144694,0.24185 -0.193787,0.40307 -0.241845,0.74208 -0.145211,0.25786 0.06459,3.95066 0.177251,0.40308 v 2.67684 l -0.322461,0.51573 -0.225826,0.40308 -0.273885,0.48369 -0.193787,0.51625 -0.19327,0.43511 -0.112655,0.40308 -0.06459,0.54828 -0.01602,0.16123 -0.145211,0.0806 -0.03256,4.24108 0.145211,0.16124 0.0646,0.38705 0.112654,0.3545 0.209807,0.17777 -0.01602,0.90279 -0.161231,0.51573 -0.08061,0.50022 -0.16123,0.51574 -0.129191,0.61288 -0.451652,1.19321 -0.20929,0.61288 -0.193787,0.25786 -0.257865,0.43564 -0.145211,0.54777 -0.16123,0.32297 -0.08062,0.37052 -0.01602,0.32247 -0.04858,3.91862 -0.03204,0.49971 -0.19327,0.38706 -0.0646,1.048 v 0.48369 l -0.258382,0.51624 v 0.66095 c 0,0 0.0488,0.62899 0.01654,0.69349 -0.03225,0.0645 -0.387057,0.43512 -0.387057,0.43512 l -0.306441,0.50023 -0.193787,0.66094 -0.17725,0.85473 0.113171,0.75757 0.161231,0.51625 0.209289,0.4191 0.09715,0.58084 0.144694,0.43512 0.145211,0.61288 0.17725,0.6935 0.596863,2.07997 1.305863,2.40244 0.209807,0.49971 c 0,0 0.257865,0.48379 0.257865,0.54829 0,0.0645 0.04858,0.50023 0.04858,0.50023 v 0.45113 l 0.08062,0.40359 0.290422,0.25787 0.387056,0.45113 0.112655,0.30645 0.241845,0.33899 0.257866,0.16123 0.274402,0.1447 0.289904,0.24236 0.129192,0.37052 0.209806,0.38706 0.273885,0.40307 0.355017,0.49971 0.257865,0.50023 c 0,0 0.209799,0.33848 0.290422,0.4191 0.08062,0.0806 0.53175,0.54828 0.53175,0.54828 l 0.790133,0.90279 c 0,0 0.564719,0.69359 0.580843,0.75809 0.01611,0.0645 1.789555,1.99937 1.789555,1.99937 l 0.08061,0.33899 -0.01602,0.3545 0.08062,0.25787 0.273885,0.35502 -0.789616,3.5636 -0.580843,3.95067 -0.725537,3.78891 -0.0646,1.08056 0.09663,0.25786 0.612883,0.35502 1.015958,0.40307 1.564246,0.75758 1.70894,0.79013 1.209745,0.46768 0.757576,0.30644 0.742074,0.2098 3.805452,0.016 0.177251,-0.11265 0.01602,-0.41961 0.161231,-0.16123 0.355017,-0.19327 v -1.75752 l 0.241846,-0.17777 0.03204,-2.27324 0.08061,-0.37104 0.03204,-0.43512 0.03256,-0.4842 0.128674,-0.33848 0.193787,-0.3545 v -0.30645 l 0.241845,-0.24184 -0.14521,-0.40308 -1.3224,-1.30638 -0.967383,-1.2578 -0.403076,-0.38706 -0.564307,-0.032 -0.693498,-0.14521 -0.612365,-0.25786 -0.484209,-0.33849 -0.596346,-0.99993 -0.33848,-0.80616 0.144694,-0.8387 0.419612,-0.75758 0.387057,-0.6935 1.096057,-1.19321 0.903304,-0.88677 0.741557,-0.54828 0.500228,-0.48369 0.403076,-0.20981 0.580326,-0.14521 0.628902,-0.0646 0.532268,0.19379 0.451135,0.27389 0.258382,0.24184 0.06408,0.32246 0.0646,0.17725 1.580266,0.11317 0.806152,-4.45037 c 0,0 0.161553,0.0323 0.03256,-0.16123 -0.129001,-0.1935 -0.419612,-0.45165 -0.419612,-0.45165 l -0.22531,-0.32246 0.03204,-0.38706 0.257865,-0.22583 0.612883,-0.2899 0.257865,-0.29042 1.709456,-8.35298 1.112594,-1.01544 1.305863,-1.59681 1.306381,-1.53168 0.709517,-0.90279 0.963765,-2.24999 1.095024,-3.92225 -1.913578,-12.38787 -1.741496,-10.12651 -0.387056,-1.64435 -0.161231,-0.74207 -0.387056,-0.58033 -0.161231,-0.38705 -0.16123,-0.87075 0.128674,-0.93534 -0.741557,-1.999366 -0.19327,-1.064018 -0.03256,-0.258382 -0.451652,0.580843 -0.16123,0.225826 -0.09664,0.225309 -0.161231,0.355017 -0.09663,0.19327 -0.09664,0.225826 -0.16123,0.387057 -0.09715,0.257865 -0.03204,0.03256 -0.161231,0.09664 -0.193269,-1.580265 V 97.394055 L 69.69187,95.168868 69.53064,93.814429 69.240218,91.040954 v -0.806152 l 0.0646,-0.967383 0.09663,-0.838708 0.355018,-1.064018 z m -12.861747,38.584727 1.642277,4.28708 0.547253,2.46289 -0.182418,3.64888 -0.273885,2.09754 -0.273368,1.8247 -1.095024,3.01015 -0.729671,-0.54725 -0.547253,-0.82114 -0.09095,-0.82114 -0.273885,-0.72967 -0.912089,-1.64176 -0.09147,-2.0066 0.182934,-1.73323 0.182418,-1.45934 v -1.91564 l 0.729671,-1.82418 z"
       sodipodi:insensitive="true" /><path
       style="fill:#000000;stroke-width:2.64583;stroke-linecap:round"
       d="m 88.069255,91.444256 1.664697,0.410472 1.208614,0.364866 1.231419,0.342061 c 0,0 1.413851,0.478885 1.505069,0.478885 0.09122,0 1.459457,0.364863 1.459457,0.364863 l 0.661318,0.478885 0.798142,0.912165 0.524495,0.843748 0.638513,1.596284 0.250844,1.505069 0.114019,1.299826 0.364866,0.82095 0.38767,1.36824 0.547296,2.2348 0.296452,0.98057 0.02281,0.82095 -0.205238,4.26436 0.250846,0.41047 0.889356,0.84375 0.38767,0.82095 0.27365,0.86655 -0.0228,0.86655 v 0.95778 l 1.07179,2.2576 0.93497,2.55405 0.52449,1.48226 0.25085,1.36825 0.20523,0.47888 1.00338,1.52788 0.52449,1.00337 0.47889,1.1174 c 0,0 0.93497,1.61909 0.93497,1.75591 0,0.13683 0.34206,0.66132 0.34206,0.66132 l 0.0684,0.36487 0.0456,0.41047 0.0684,0.34206 c 0,0 0.45608,0.70692 0.47888,0.79814 0.0228,0.0912 1.75592,2.05237 1.75592,2.05237 l 0.88935,1.32263 0.93497,1.77872 1.64189,2.37162 3.375,4.97128 5.15372,6.52196 5.86064,7.45693 0.15326,0.29001 0.0887,0.16125 0.008,0.23381 -0.0403,0.12094 -0.11287,0.20156 -0.0887,0.24993 0.0242,-0.40312 0.0161,-0.18543 -0.0645,-0.16125 -0.12094,-0.0242 h -0.13706 l -0.23381,0.0242 -0.14512,0.0484 -0.14513,0.0887 -0.15318,0.10481 -0.24994,0.1935 -0.21768,0.14512 -0.10482,0.14513 -0.14512,0.12093 -1.37868,1.30612 -1.11262,1.21743 -1.35843,1.45835 -0.11402,0.27365 0.0912,0.38767 0.13682,0.25084 -0.0684,0.13682 -1.27703,1.0946 -0.31926,0.15963 -0.0228,-0.27365 -0.34206,-0.11402 -4.92568,-5.92906 -4.95021,-6.16034 -0.516,-0.74174 -0.16125,-0.516 -0.37087,-0.43537 -1.32224,-1.29 -1.49962,-1.58024 -2.40261,-2.69285 -2.62836,-3.24111 -1.28999,-1.59636 v 0.95136 l 0.0323,0.61275 0.0806,0.258 0.0645,1.09649 0.11288,0.29025 0.0806,1.48349 1.08037,6.78859 0.0645,0.38699 0.0806,0.37088 0.11287,0.58049 0.0161,0.74175 0.17738,0.33862 0.0645,1.70924 0.20962,0.258 -0.0322,1.83824 0.129,0.258 0.11287,0.25799 c 0,0 -0.0161,0.387 -0.0161,0.48375 0,0.0968 0.0323,0.59662 0.0323,0.66112 0,0.0645 -0.0161,0.46762 -0.0161,0.46762 l 0.14513,0.16125 0.0645,0.7095 0.0645,0.70949 v 0.387 l 0.14512,0.41925 0.14513,0.387 -0.0323,0.49987 0.0968,0.43537 0.37087,2.57998 v 0.49988 l 0.20962,0.35475 -0.0322,0.59662 0.0322,0.3225 0.1935,0.17737 0.0323,0.48374 0.0323,0.40313 0.16125,0.20962 -0.0323,0.88687 0.0161,1.01587 -1.70924,0.16125 -0.32249,-0.0645 -0.4515,-0.14513 -0.40312,-0.16124 -0.62887,-0.17738 -0.61275,-0.29024 -0.72562,-0.27413 -0.69337,-0.30637 -1.031994,-0.67725 -0.338622,-0.48374 -0.22575,-0.30638 0.04226,-2.78486 0.102618,-1.81292 0.0114,-2.48564 0.02281,-2.44003 -0.07981,-0.29646 -0.07981,-0.20523 -0.07981,-0.30786 v -3.3978 l -0.102618,-1.90414 -0.06841,-1.6875 -0.205237,-0.22804 -0.136824,-0.47889 0.09122,-3.9451 -0.02281,-1.02618 -0.228039,-0.18243 v -1.29983 l 0.02281,-0.86656 -0.228042,-0.0912 -0.02281,-0.43328 0.02281,-0.59291 -0.06841,-0.31925 0.02281,-1.14021 -0.02281,-0.86655 -0.114022,-0.34206 -0.18243,-0.41047 0.06841,-0.79815 -0.11402,-0.47888 -0.342061,-0.43328 -0.02281,-2.30321 -0.182433,-0.41047 c 0,0 -0.136824,-0.0228 -0.11402,-0.15963 0.02281,-0.13682 0.04561,-1.80152 0.04561,-1.80152 l -0.02281,-0.95777 -0.205237,-0.70693 -0.250844,-0.91216 -0.114022,-0.63851 -0.250843,-0.95777 -0.342062,-1.34544 -0.159628,-0.75253 -0.273648,-0.88936 c 0,0 -0.136824,-0.75254 -0.136824,-0.84375 0,-0.0912 -0.228042,-0.70693 -0.228042,-0.70693 0,0 -0.09122,-0.5701 -0.114019,-0.66132 -0.02281,-0.0912 -0.136824,-0.68412 -0.136824,-0.68412 l -0.159629,-0.41047 -0.114019,-0.29645 -0.250846,-1.14021 -0.159629,-0.79814 -0.205234,-0.5701 -0.182433,-0.31925 -0.02281,-0.57011 -0.06841,-0.43327 -0.04561,-0.47889 -0.205237,-0.52449 -0.136824,-0.31926 -0.04561,-0.11402 -0.04561,-0.70692 -0.114019,-0.61571 -1.00338,-4.35558 -1.163005,-3.58024 -1.254223,-4.49239 -0.729731,-1.61909 -0.09121,-0.61571 0.02281,-0.43328 0.136824,-0.70692 v -0.342065 l -0.342061,-0.729729 -0.250844,-0.114019 -0.410475,-0.433279 0.04561,-0.364863 0.182433,-0.342062 0.11402,-0.273648 -0.136824,-0.342061 0.273648,-0.364866 0.433279,-0.410472 0.364863,-0.433276 0.182433,-0.478885 0.06841,-0.342061 0.02281,-0.342062 -0.159628,-0.250846 -0.50169,-0.228039 -0.250846,-0.136824 h -0.410472 l -0.11402,0.228039 -0.205237,0.04561 -0.06841,-0.296452 -0.09121,-0.387671 0.547298,-0.501687 0.5701,-0.570103 0.296453,-0.296452 0.250843,-0.228039 0.182433,-0.342061 0.04561,-0.182433 V 91.62674 l 0.09121,-0.114022 z"
       id="path1045"
       sodipodi:insensitive="true" /><path
       style="fill:#800080;fill-opacity:1;stroke:#008000;stroke-width:0;stroke-linecap:round;stroke-dasharray:none"
       d="m 69.86022,86.860641 -0.09122,0.456081 -0.364865,1.094594 -0.159626,1.755913 v 0.90076 l 0.535895,4.800254 0.205234,1.482262 v 0.729731 l 0.205238,1.57348 0.193833,-0.125423 0.433279,-1.094595 0.262245,-0.558699 0.627113,-0.832348 0.239442,1.379646 0.741133,1.972553 -0.136827,0.92356 0.171032,0.87796 0.136824,0.35346 0.433276,0.64992 0.535895,2.38302 2.029561,11.8011 0.307856,2.16638 0.775337,5.00549 0.547299,3.54603 -1.105998,3.9223 -0.966015,2.28023 -3.337856,4.0151 -1.096492,1.032 -0.290248,1.67698 2.870232,0.129 1.128742,0.0968 h 2.257488 l 1.289992,-0.0645 1.709237,0.29025 2.386486,0.258 2.805735,0.41925 1.64474,0.16125 3.725071,-0.27193 1.57348,0.0456 1.368242,-0.18243 0.524494,-0.29646 0.478885,-0.47888 0.342062,-0.36487 0.342058,-0.50168 0.06841,-0.11403 v -0.22804 -0.34206 l 0.04561,-0.27364 h 0.228039 l 0.182432,0.22803 0.182433,0.18244 0.03991,0.0285 0.07981,-0.76964 -0.11402,-0.46748 -0.3756,-0.46654 v -2.28974 l -0.169312,-0.387 -0.08062,-0.0645 -0.0645,-0.0806 0.03225,-0.0726 0.05241,-1.74955 -0.02822,-0.97153 -0.45956,-1.62861 -0.112874,-0.63694 -0.612748,-2.39858 -0.13706,-0.64499 -0.282186,-0.93122 -0.133032,-0.81027 0.004,-0.0323 -0.237842,-0.6974 -0.02822,-0.19753 -0.03225,-0.23382 -0.04838,-0.20559 -0.06047,-0.29025 -0.06853,-0.38699 -0.282186,-0.72159 -0.366842,-1.7173 -0.03225,-0.18947 -0.169312,-0.47569 -0.02822,-0.11287 -0.201559,-0.33056 -0.01209,-0.57243 -0.07659,-0.45553 -0.04434,-0.44747 -0.39506,-0.97555 -0.03553,-0.69985 -0.353462,-1.54497 -0.78104,-3.43771 -1.168707,-3.59734 -1.071792,-3.85959 -0.165328,-0.5815 -0.746834,-1.64189 -0.08551,-0.63852 0.02281,-0.42187 0.142526,-0.69553 v -0.353458 l -0.330658,-0.689821 -0.267949,-0.125424 -0.410472,-0.444679 0.05701,-0.376267 0.176731,-0.33636 0.114019,-0.267946 -0.148224,-0.347763 0.307853,-0.399071 0.456081,-0.421875 0.324958,-0.399071 0.176731,-0.473184 0.06841,-0.342061 0.02281,-0.342059 -0.153929,-0.233743 -0.735431,-0.347761 -0.410472,0.0057 -0.120213,0.241215 -0.225751,0.04031 -0.177374,-0.733681 -1.54799,1.588301 -0.967494,0.870747 -0.193497,0.290248 v 0.935243 l 0.03225,0.419249 0.225748,0.386995 -0.0645,1.386742 0.161251,1.031994 0.322498,0.5805 0.161247,0.90299 -0.0645,0.54825 v 0.35475 l 0.129001,0.35475 0.290247,0.35474 0.09675,0.48375 0.0645,0.67724 1.805987,1.7415 0.386998,0.12899 0.322498,0.258 0.322498,0.87075 0.0645,0.64499 0.257997,0.129 0.0645,0.4515 v 0.387 l 0.161247,0.29024 0.03225,1.161 0.161251,0.35474 0.257997,0.48375 v 0.4515 0.387 l -0.129,0.45149 -0.161248,1.161 -0.1935,0.45149 -0.548246,0.4515 v 0.7095 l -0.16125,0.45149 -0.386995,0.93525 -0.386999,0.54825 -0.09675,0.0645 -0.644996,-1.90274 -0.419248,-1.161 -0.386995,-0.83849 -0.09675,-0.7095 -0.580496,-1.19324 -0.03225,-0.35475 -1.160995,-1.28999 -0.386998,-0.516 -0.515995,-0.83849 -0.257998,-0.87075 -0.161251,-0.61274 -0.644996,-0.67725 -0.322498,-1.12874 -0.451495,-1.03199 -0.773996,-1.2255 -0.935244,-1.22549 -0.677246,-0.58049 -1.128744,-0.67725 -1.128742,-0.80625 -1.193244,-0.741741 0.03225,-0.935247 -0.193498,-0.03225 v -0.322498 l -0.16125,-0.257998 -0.161248,-0.161248 -0.129,-0.386998 -0.128998,-0.257997 0.0645,-0.548249 -0.225748,-0.161248 V 96.2979 L 73.303801,95.975402 70.949565,92.831046 70.610941,92.460171 70.352943,91.960299 70.111069,91.26693 c 0,0 -0.161248,-0.435372 -0.161248,-0.515996 0,-0.08063 -0.16125,-1.01587 -0.16125,-1.01587 l -0.03225,-1.338366 0.145124,-0.75787 0.03225,-0.403124 z"
       id="path2021"
       sodipodi:insensitive="true" /><path
       style="fill:#00ffff;fill-opacity:1;stroke:#008000;stroke-width:0;stroke-linecap:round;stroke-dasharray:none"
       d="m 63.612736,172.29457 0.169309,-0.12094 0.0081,-0.41118 0.153186,-0.13707 0.378936,-0.23381 v -1.74148 l 0.23381,-0.19351 0.07065,-2.34847 0.09122,-0.31926 0.04561,-0.91216 0.296455,-0.61571 0.04561,-0.34206 0.182433,-0.11402 0.04561,0.18243 1.915541,1.64189 0.04561,-1.32263 0.342061,-0.20524 c 0,0 -0.02281,-0.75253 0,-0.84375 0.02281,-0.0912 0.205238,-0.43328 0.205238,-0.43328 l 0.159628,-0.5473 0.11402,-0.5929 0.250846,-0.36486 0.205234,-0.5245 c 0,0 0.06841,-0.29645 0.09122,-0.38767 0.02281,-0.0912 0.136824,-0.41047 0.136824,-0.41047 l 0.889357,-2.2576 0.50169,-1.55068 0.342061,-1.02618 c 0,0 -0.02281,-0.52449 0.06841,-0.5473 0.09122,-0.0228 0.182433,-0.63851 0.182433,-0.63851 l 0.09122,-0.31926 v -0.25084 l -0.02281,-0.18243 h -2.873311 l 0.775338,-4.37838 0.114019,-0.15963 -0.706924,-0.82095 v -0.38766 l 0.273648,-0.27365 0.592905,-0.25085 0.296452,-0.36486 1.278557,-6.54333 1.265806,0.0524 1.719995,0.083 1.048989,0.0912 0.342061,0.0228 2.075167,-0.0228 1.208616,-0.057 1.744509,0.29646 2.360221,0.26224 2.873309,0.42188 1.57348,0.15963 3.739866,-0.27365 1.619086,0.057 1.322637,-0.19384 0.51309,-0.33066 0.809543,-0.80954 0.421876,-0.62711 0.02281,1.58488 -0.06841,0.49029 v 0.5929 l 0.0114,1.0832 v 0.30785 l -0.262247,0.21664 -0.17103,0.13682 c 0,0 0,0.27365 0,0.33066 0,0.057 -0.02281,0.20524 -0.02281,0.25085 0,0.0456 0,0.45608 0,0.45608 l 0.11402,0.20523 0.114019,0.11403 0.136827,0.34205 0.04561,0.59291 -0.02281,0.29645 -0.319257,0.0684 v 0.20524 l 0.159629,0.18243 0.296455,0.25085 0.136824,0.41047 0.02281,0.34206 -0.02281,0.25085 0.06841,0.29645 0.205238,0.20524 0.182432,0.20523 0.11402,0.31926 -0.02281,0.66132 0.02281,0.15963 0.182433,0.29645 0.136824,0.27365 0.159628,0.22804 0.09121,0.31925 0.114022,0.38767 -0.07823,0.52745 0.0645,0.516 0.161248,0.3225 0.09675,0.387 0.120592,0.174 0.06841,1.89273 -0.148228,0.50169 -0.02281,0.23945 0.02281,0.6043 0.02281,0.25085 -0.12542,0.12542 -0.02281,0.38767 -0.114022,1.98395 -0.159629,0.52449 v 0.68413 0.5929 l 0.228042,0.36487 v 0.84374 l 0.136824,0.47889 0.182433,0.29645 -0.02281,2.28041 -0.387668,0.36486 v 0.68412 l -0.250846,0.45609 -0.02281,0.31925 -0.04561,0.43328 V 168.75 c 0,0 0.136824,0.0912 0.18243,0.25084 0.04561,0.15963 0,0.50169 0,0.59291 0,0.0912 -0.273648,0.5701 -0.273648,0.5701 l 0.136824,1.1402 -1.778714,10.39865 -2.280407,5.6098 -2.782094,11.2652 -0.09122,0.86656 -0.273647,1.82432 -0.410472,1.77872 -0.950527,1.22295 -0.128997,0.70949 v 0.80625 l 0.128997,0.61274 0.161251,0.903 0.03225,1.03199 -0.03225,0.93525 v 0.93524 l -0.0645,1.45124 H 70.401317 l 0.0645,-0.35475 0.290248,-0.80624 0.451498,-0.8385 0.322498,-0.48374 0.483749,-0.54825 0.0645,-1.32224 -0.354745,-1.16099 -0.258001,-1.3545 0.129,-1.22549 v -1.28999 c 0,0 0.0645,-1.03199 -0.129,-1.28999 -0.193498,-0.258 -0.773993,-2.77349 -0.773993,-2.77349 l -1.483493,-3.54747 -3.095979,-8.51395 -1.031994,-4.90197 -0.644996,-3.35398 c 0,0 -0.773996,-2.70899 -0.773996,-2.96698 0,-0.258 -0.04837,-2.62836 -0.04837,-2.62836 z"
       id="path2503"
       sodipodi:insensitive="true" /></g></svg>
